<mxfile>
    <diagram id="FB0lLMp8adpU2UOfi77A" name="Page-1">
        <mxGraphModel dx="3167" dy="832" grid="1" gridSize="10" guides="1" tooltips="1" connect="1" arrows="1" fold="1" page="1" pageScale="1" pageWidth="827" pageHeight="1169" math="0" shadow="0">
            <root>
                <mxCell id="-sU8y2Q3AdZbQh8XbGMl-0"/>
                <mxCell id="-sU8y2Q3AdZbQh8XbGMl-1" parent="-sU8y2Q3AdZbQh8XbGMl-0"/>
                <mxCell id="-sU8y2Q3AdZbQh8XbGMl-2" value="&lt;font face=&quot;helvetica&quot;&gt;Azure Data Platform - Network Flow&lt;/font&gt;" style="rounded=0;whiteSpace=wrap;html=1;dashed=1;labelBackgroundColor=none;sketch=0;fontSize=45;align=center;fontFamily=Verdana;verticalAlign=top;fillColor=#FFFFFF;fontColor=#182633;strokeColor=#182633;" parent="-sU8y2Q3AdZbQh8XbGMl-1" vertex="1">
                    <mxGeometry x="-880" y="200" width="2520" height="2170" as="geometry"/>
                </mxCell>
                <mxCell id="-sU8y2Q3AdZbQh8XbGMl-5" value="" style="rounded=0;whiteSpace=wrap;html=1;labelPosition=center;verticalLabelPosition=middle;align=center;verticalAlign=top;horizontal=1;direction=south;fontSize=15;sketch=0;fillColor=none;fontFamily=Verdana;strokeWidth=2;strokeColor=#216FF8;fontColor=#182633;" parent="-sU8y2Q3AdZbQh8XbGMl-1" vertex="1">
                    <mxGeometry x="-700" y="970" width="2300" height="1110" as="geometry"/>
                </mxCell>
                <mxCell id="PrAZnpQkdzTBEj-k0U2I-0" value="{ ingenii }" style="shape=image;verticalLabelPosition=bottom;verticalAlign=top;imageAspect=0;aspect=fixed;image=data:image/png,iVBORw0KGgoAAAANSUhEUgAAAMgAAADICAYAAACtWK6eAAA5q0lEQVR4nOy9B3hbx5n3+0fvIAj2InY1UlTvzZJlucmObVl23GNnnb2OU9bOZpNsNlnflN2bvl++ddZJ7HUcO3G35VjuttxULcnqJEVJ7BQrSPTe7nMGAxAkQPAARCNzfs8DAgRwzgyAec+8885b+ODg4JgUTkA4OGLACQgHRww4AeHgiAEnIBwcMeAEhIMjBpyAcHDEgBMQDo4YcALCwREDTkA4OGLACQgHRww4AeHgiAEnIBwcMeAEhIMjBpyAcHDEgBMQDo4YCDPdgb9TigBcB2A5/Q36AbwM4GymO8bBkUkqAfwBgAeAP8rtG5nuIAdHptgKYGASwQjebADmZbqjHBzp5i4AzimEI3h7ItOd5eBIJ6tYCkbwdixJ7ZZzsxHHTOBsnAJyaZrt/R8A9gnnbKOzGAdHVrElTuHw0wV8onxvinM/DYCXxM836+HMvKnli1GeGwLwPoBDYWZdLwALAMU0B/CXp3j9bgBvAXh+Gm1wcCSNU/TK3Qrg/wOwMsXtsZmhnktxHzg4WMPMELemsT02AnIhjf3h4IiJMs3tXWAhIKY092lGwy3YZhf1AMQA3ACkAPIBzKWm5m0AygD0AKjIdEdnCpyApBYBgDUAFoQZRDwAmgEcpYvzdFJEheWNNLfLwTGORgB/BWCMoeoYALwKYF2mO8sxOdwMklwWAvgpgJ3MP1qtFtu3b0d9wyIUFxWSNwwMDqGp6Sw+eP99jI6OBo97BcAjAJoy2HcOjpTBo5t0ZmZ22HnzLv/u3bv9Xq/XPxnMa3v27PHfccedwRmFUbd+xl20OGYjLzCDPC8/3//6nj2TCsVk/O311/3FJSVBQeE28ThmFY8xA3vZsuX+i21tkwqBxxe4TUZfX79/+/Yrg0LyGgB5pj8YB8d0+TkzoK+++hq/1WodN+AtLr+/z+r1XzR6/S368TfmOeY1s2u8kNjtdnIuKiR/SqA/pQD+jVqpjgM4R72DXwXwALMsSsF3MKvh9N3EuRvA0zW1tWhtbYVQICBPmlzAoN0Hr5/dSQQ8oEjGh1oc+N9sNmPtunVobiLr9V10AT8VFQB+C+BGFu99ikYuWtj18O8bLmlDYuRQaxVeeuklIhweH9Br8aHPxl44GJj3Msd0W3xwegGVSoX333sfBQUFzMu/YXHVvx3A54xwbNy4Ea/v2YOLbW3w+/2h27lz5/C/Tz6JpUuXMe+/l84qV07rG+DgiAFRrR77/R+IamR0+v2t+khVKt7bOb3Xb3IG1K0XX3qZzaL9n5n3rF6zxv/BB3tZGQR2v/aaf86cOcFzfzeN3xnH3wnVjCZ0xfbtZMAZnP5pC8ZEIdHZA6v59Rs2BAfy1ij9+E/mtRtuvNFvsViiGgWcHr8/mqG5o7PTv2Xr1uC5v5qB73DGwK1B4udJAPe9/Mqr2HHDTeg0+1LSSKmcj/f2vIpbdt3M/PssgDvDXt7JrE2WLVuOg4cOQiqRkCdtHsDg9MHiAXxhah6zzlGLecgR8SClDi8WiwVr165FU1OTFcAG6prPMQFOQOJDCaC7uromt+V8G7osPqRGPAI/TJWShyWNDWg912KiFiorNf/2KpXK3KPHjmHB/PmwuoFhhw8OFp5dcmHAKCARAC0tLVi5ciVsNlsfgEUA9Cn6ODMWQaY7MMO4A8Bt999/Pxo2bIMrjsV4Iri8gFLgxTvvvCOhruwnAfwXgM179uzBqjVrMGjzYcjhh4dlX9w+wEg7XlFSgPyCArzxxhsqACIA76X2E808uBkkPl4GcPMrb76H+vXb0tOieRgLK4pBzb1fBmC85tpr8dabb6LP6oPJnfip1SKgQOxFTU0Nent7PQBKAOiS2PsZD2fmjY+FIpEYC1dtSFuDAnUBGhYtBnWZ/z7z4JFHHsGAbXrCwcAcb/YK8ejv/gfUHf+WpHR6FsEJCHuY9Uf96o2XgSeSpq1Rrx9oXEU84hsAfLOquhp1i1fB4ErO+Ycdflx+9fWYP38+OItWJJyAsIeMoMYVq9LfcENj8KHs1ttuh86RvMUPc6Z+mw9XXXsdaBzL/KSdfBbACQh76pg/lTV1aW+YLxizpTSs3oxk2wZ8ABavuyz4701JPv2MhhMQ9uQwf0rnVKa9YZVKHXq8dO2mlLSxeHVoXbUmJQ3MUDgBYY8sFSf1uN346x8fxdO//y0cdlvU96g1ueReJBZDLI1c/wxc6sGjP/sRXnvuzwn3Q5WjwZyqaubhZQmfZBbCZVZkT0r2jL73wJfw5qsvkMefffIhfvfc3yLe4/EEspEuWhaZd87v9+FL112O7s528r/DZsNt/5DYWludwwhiRy7NiOJI6CSzDG4GYQ9xD7dbrUk9aWfbWB63Sz1dUd8z2B/IZy0UiiJeM+n1IeFgOHf2dDK6tSAZJ5kNcALCniLmT2tTUgZgiKtv3BV6fPk1X4j7+BxtHjHTBrn5rnuT0a0vAShOxolmOpyKFZsldPf6eurFi7bz55LawP0PfRerN20Bn8fHouXRTcgDl3pjnuO/nnoeJz47iMKSUlTPTcrF/yEADwL4EMAHtKiPMRknnmlwAhKJgnrOfjmaRefYgU+T3uDiFbENR82nTpB7lzP6skAskWLN5suT1h+xSASX2y1mJjh6+xGAxwG8BOBg0hqaAcxWFWsTgLVxHsOjgnGeFtoko1YmEmDL/AL84Z4V0Cgk6OvtRk/HxdT0Ogo+nw/HPztAHjefPpHStvQjATestx/ehG9tn4t5RaHUwgo6qzAdeR1ATQKnX81okcnsbzqYjQIiB/Aprb/xDyyP2UaTtv2FupUjXynGN6+Yh73/vAn/c8cSbKrNRXVeINHIR++kL3Pnp++9CbMpoN24Xa5JZ5HpYrNYiPArZBKUKPi4f2MlXntwLZ77ympcs2jccoRRN88A+B2APJanZy48n9G6KOUp+QApYjYKiI0KCKju/JUY711Gr4of0KyIaCjX4IkvrcSn/7IZD2yqQI5UAIPNhY5hM2oLAlshBz76IB2fg/DWqy+O+//o/k9S0s5n+z8i93ML5DjTM4o+vQ1OjxdLytX49S2LyPdx/+YaqKTEkiana5RLAL49hQn8TnrhAb1oTbfEXFqZDQJyD00GvTrsuW1huvIfJ6m89BBNjbOe+SdPKcEf71mBl76yEutrNPD6/Lg0asXRDh1a+gwYMNqxolJDDvz0/bfRN4lJNpkwbex56VnyeF6Ritwf/Dg1wrn/g3fJfYVGDIvTg64RC453juB0zyiMNheZUb+1rQYfPLwBO5aEJgEJgF/SAkHRfLjuChOO03Q9E/SUWUxn7aSY3VLFbBCQe+nV/0MAv6Zetx4AV9GZAVRIgjNJDk2E8F8gewsC3LuxGm99cz021ubC7vKgfciMzzt16B61EkEJUqgQoio/oJc/97+PpfyDPfl/f0Xuy3KkWFEamL3e3v1SStra/2EgVips3UGwOj1o7jPgbK+eXCTkYgF+uXMBnrxvFZZUhBKu1FIV6p6wQ5mZ4xn6+BNar9FCPRJ+Qi9g9RNCibOO2RBReIjWvVhCM6UzX3g71ZNfoWrUfKo759KYcmJP3bawCL++pRFfWFwEp9uDTp0FHToLGRT+STwCZQLg8x4TzjefxfYdNyI3Lz8lH+pSdyd+9M9fg8vlxOYaDWq1EhzptcBkNGLD1u0oKZ+TtLbeee0lvPjU42SWuL4hH2JR5LBweXxE1Rwy2eEHD/OLlNi1vARqmRjHuw1we/1S6ui4HEABtXqBCsf11Ex8FV3k30TrmDCLuW9lc5DWbBCQEQAv0qvTFVQIbqfetx/QvLmrqeVlbdCn6t6NNfiPGxaQNUaHzkyEw+6eOqhbJeLjos6BQYMFRw9+itu+/AB4vOQHZj7y0APEaqWRCXFjQz4kQh70di8GzC4M9vXiC19MTlVnu9WKB2+/ARazCRurNagvVUEomFyxYCZUo92FQZMdUpEA62rysL2hGKcvWTBkIgYE5mJ0DX07o8LuoA7DPwfwaNjC/gc0/iRrhQOzRECCHKLCwMwklVTH3Ul1X+bqtpF5E6Mi/PC6enxlYwX5kc8PGGF2sK+8zAgD3+fBqT4rRoaHIBAIsGrD5qR+kNeffwa///V/ksc3NOSjUBnYripRi/FZtxndHW1YumoNKpLgev/yM0/gzVdegIDPx/ULc1GiVbASeEZQRixOOFwelGtluGFJMTpGHWgfHpew8WYAzMLtXSooDEfo49ToiklmNgkI6GzyJwCjdLYooylCiXDUFSrx7D+uxdIyJVoHjESn9sUZXCEQ8CHh+UNX88/2fYy5C+pRt6AhKR/gjRf/iu888CXyeE2lBusqAmsC5qou5vNIBpM+owN733wdV33hZmi0bC2tkXRcbMU37r4FXo8HaytzsLRMBZVCEtc5bC4vBgx2iIV87FpRBq1aiSPtOngCX+w9NCdwHq2N+O8A7gMwmHCn08xMFZBdNE2NnCYaUNLaHMEsPEdo1vXbqMqF5RUaPH3fCrg9bpzrN8DhTjxhj88HlCqFOK9zwOry4p2/vQylUomlq9dP60PtefEv+M7/ExAOrUKMWxvzIOAHruYatRR2pweVuRIc6THD4XTi4Efv47pdt0Mqiz8R/EBvN/7hpqsxqhsms+quRXnIVUoglSTmXGG0u2Gyu4mhY9O8Irxxuo8RkuD4+oBepMJNcELqvsOovnPoBa2crh+zhpmY1WQFzS0bCw9dkxC77Lq5hXj8zsVoHzJh2Dz9jTa3x4sBnQUOjw//c3gQJnsgQPz6XbfjZ7//87gIQDb4vF78+NtfxwtP/ZH8LxQI8MC6EuTLAudhhKS0UA2dwQq7w4NT/TbsPjtMXqtfvBRPv/kxFEoV6/a62i7gS9dfjsH+PvD5fNy/qgilajEKtQpIxNPzPhLweJhXkoNhiwc7HzsMr49ciNwA2ui6cKoGGPW4e1qdSCIzdQa5ilZwnUzA+XTdga0LCshGV+ewiejMyYDR150uL3h+P+bmy9A05IDb6yOWrQ/feh3avDzUzF/ISpc/8OF7eOjeW/HJe2+R/1USIe5bWUxMykFU8sCVnWnXanejWCWCyy9Aj8GO4cEBsrNft6AeZRVVU7b3/p7d+MbdN0M3FNByrlmgxYICGfg8HpmlpmtwYBSrUYsDJTkSXLW4DB+36mBzeQT094q1reCl68hHwzSBjDMTZ5CJlFBXdAHVdb8NYDvzwooKDX57WyN6RixEV46F1e3HsMlOHheqpZCLYm8RMYvT4dFAbMio3YvXW/ToHBmLFSmrqMT263di9cYtqK6bh/LKajJ8ers60XHxPI7s/xifvPsmeRykNEeGWxrzkCsbu27x+TwU5yuJcDD068zweALj5+MuKz4+P2YE2rD1Cly36w6s27INRaVjHh09ne147/VXsPfNv+HEkUOh5y+fl4fNlYE1To5KCnWM9Qcz8PuMTjJ7ysQiFKkiY1MmUqqRY9DswgN/PRmu0v47VYF1VCgG6JokxWn4EmM2CEg4C6j6pSjSKPCHOxthtTvhiGG+dXqBF48P4ODFEWxbkI/N8/JRqGA3sY4YbbDZx5JTfdJpwUcXRhLq+LpqLbZWKyEWjP9JtDkyKGTi0P82hxsjhrHQ3M96rXi7JdJSKhSKkJefj8GB/ojXmDZuWFSAhsLA5iMzaZTkq4gBIhZ+P3C8x4R3m4cxanPjrjVzsLRMEfOYApUUR3us+MmeUH3Sd8LMwFnPTFWxolFMneGKpSI+fn/HYni9HtinmDmeOtSL/Rd0ZBF/z5pSKMTsnQukYiFsdldoU7FKIya+TA4vYHZ6g5acSWEG5LwCOW5uLMCyElloQR46v0QIjWp8KLxIKCBC6aONlqvFqMiVQe/wwBhmrvb5fLBaImvk1OTJcfuyIlRqxoQuVy1jtThnBKk0RwKtUoKPzulwrMuI1dUaKCWTDyOby4PGUhV8PAHO9BKnyzq6Rtw3ZYNZwGyaQV6mdnf839uXIk/GizlzMAxb3PjPdy7ihqUleOZQN9bWFeKeVYWQCNkLidPlwdBoZBiuxw9c0NnJ3sCw1UNUMlChIi4rWinm5ssh5EUXIkZYisJUq3Bcbi+GRi0Ru/06mxcn+yzoNjjg9oyp8VKxANVaKZaUKJAzYTDLpCLka9hbwTr1Lvzi3QuYV6jA0goNdGYndi0rmvK4slw5fvNRN9470xd86nq6k57VzBYBuZkKCK5fUoY7VxURd5Gp6ByxoUfvxKa6XLx8cghvnxnA8spcfG1zfG4cZqsThiRYx8IpylNGdfkIYrW7MGq0T6sNZn3DqFZ8Prth0Gtw4mfvtqFEI8X3r6ohg+e1U4O4ccnUAsKQq5Thrv89FlwPDlMTb1aXgpsNKpYawG4AGo1CgkeurYPZwS5prUAoQF2+nKgOC4sV6Bq142SPEaM2D5bOUbO+ekjEQmIFCs4S04EZrIXa2MIBEvUnICZaB4sLQTSYGaowVwEhy9myddCKX73fBplYgIe3VpK9E4YyrQISAbtvyuX2YHlVPva2DIEGYYE6mWYts0FAGOFYxaw7fnvrYjjc7DM6Mz9s0KrJ3K2u0qDf4sHhthGyCdhQooJ0CmtW6FxiIVGfHDEcHaeCGfQFWgVZZ7BqUyQg73U448tizfSzgAgHu3aO9Vjx2MftEImE+KfLa8g6JNQHlsIBaqbSygXwgo/WATOoc+nhbNscDGemC8jNtOwxdq4oR11+fG4SE2GEZUm5Gq1DVpwfMONUjwlravIiLEuTIRTwIZeK4PX7x60B2LSrUUnJYjnamiMWjIDIpWJ4vD5yi9kOaDs5MtZq1ec9ZjyxvwvM27+zvQaV2ukl7vb6/FhcnoPPOozMTM+n8TiP04V71jGTBYRHHd4K8lUS/OPGCvCSYEpnZGFhkQLNgzb0Gx043WchMRJqKbuvihl4jJDIJCJyzWQGxGQzikjIJyZcbY6cvJ/H48Hu9qHX4EDLgBXtw1Z0jdjJbcQeEAC1VIiJe3lMm8x5mJmBOQfzOg+Be6FAQJ5nXs/TyFm7knj9wIfn9fiwxw+LyYSHtlWjtiB+l5ao5/b5UJgjw+H2UdAqvnq6SZh1zOSsJl+jATf4QmMh+EncfM1TikmMyGOfdECeV4Yfv3Eet6wsxfb57OvwM+oSM/BBXVO85AofkBRGMBjdPzhbGBxeHDqnI8J4fsAU87zMjLG4TI3lFWqsmKOGKGx2Y9S86bqKMBgdXjxzpA9Vy7fg6V8+hF3XXYX5RbH3O+KlsUSGBcVKnBsga/R/o8FVQ0ltJAnM5IjCf2f+lGjk2FCbm/STX9IHNuN27rwJv/zVr/H8kV68eiqx348Z1FKJCEq5mNyYQRzaGTc68aM3LuDl431TCgeosH3epcfj+7rwmw+7pjRlx4vR6cNv9nZg8ZYv4NVXX4VCoSD+a/F6PU8FM6te2xhKBpFLPSCyjpkqIN+mUWtkcy8VjNgCA89gMODhhx/Ck08+ifdaRvGrvZ0YtiSneg2jTv3ivfaQsyODWq3G008/A51uBH6/P3S7cOEiHnzwwXHHMwL11Gd9SekLw2edJvzrq824+e6v4KmnniLPWWmq1e7R6ZmUo9FQLCdrPsp9YZatrGEmqliltEY4VlVpMa8wOXrxRNp04zOt33fffaiursZNN+3Ev7/eirvWVmBDTc602jjQboBpgknaZDJhz57XSahtY2MjCciyWCw4duwYDhyMzNl2tEOPL6+vgJif+CWeEdQnD11Cl4WPV157HTt27Ai9NjQU8Bq2uFLjP3jnmnI095+D2+vLB/A9AD9MSUMJMhMF5B5akRVXLGC/JogHj5+HAerv5PWOqTBbtmzBqVMncd111+HJA2dwtEuDr2woj8s9JRw+L/pxL730ErmxP09CzRNOXrLgz4d6oc4rxIEDHwRLsYUYHQ34lg2anFhUkvwLfJ5ciE1ztfjwHPEnuy/bBGSmqVgymq4HFXkK1CXJqjKRPsPYrvjIyOi41yoqKvDuu+/i2muvxZleA3645zwOdU69dojG6io11NKpvWJjsaIqd1J3lViYnD789Wgf/vvDdmy98lrs378/QjjC6TOmrhrC+trQha4MwDdT1lACzDQBuTWYZX3nspKUNdJnHIsb6euP1PFLSkrwt7/9DY899hjcEOKJfZ34z3faceJSfF4TSjEfD22rIn5KibC6Wot718aXqNDh8WH3qSH86+4WHO624dlnn8Vrr+1GZWX0yll2e2Dt0WdITixNNKq1UiyrDAnJI3FkbEw5M03Fupv5o5SK0FiSmtkDxIlxbNHs9UTfvxIKhXjggQewdt06XH3VVWgbHMSjH1qwqlqLm5YUsYqXYKjUyvDIjjrsbzPgQNso2oZiC5lIKEBjmRpXzM/D/KL4voNj3Sa8dLyfOBjOnTuXqHFLliyJeczAwAC511mnWXN6Ci6r0+BEV2hfZBvNVJNxZpKALKNfHK5rZOcclyijFvbqxNIlS3Dq1Ck8/PDDePHFF3G0YxSfd+qxtkaLqxoKUJ4jnvIcAl5ggDA3m9tPTL/9Rgda+k043GHAjkUFKMtVoEglRIVWHteaw+nxoXnAhtdODqBXb4NMJsMPf/hD/OAHP4BYPHXfRkcDKibznTBrs0TUOTYsLFZCIREGnUwf5AQkfkhdMY1cjG1xbNglgtMb36q3qKiIqCpf/epXibWrra0NB9tGyG1esQqb5+aTwCIZC78uuYiH2nwpuXm9XiIgyytyUJUX32wxYHZj7zkdOd5GfbVuuukm/PznPyezRyJ06Kwk3iUVCPnA5QvysecUmbEuo9ka21LSWDz9ykB7xfTeQG9syA1mal9UnjMtqw0bBsIi9hwO9rPJpk2bcPZsE/7jP36Kn/70p+S58wNmcgNdUK+r0WJxqQJx+PixRm/3Yl+bAZ+cH4bBOqYmMmumV199FWvXxlsRYryRYtDiw9yCpHU3gpUVOUEBAc1p9svUtcaOVAmImqpDl9MsJCoaDhutvU6az6oZwHs0JHNiDOmtQYPChhpNiro8xoh9zObf0xu7utNEpFIJfvKTn+COO+7At7/9L3jrrTdDrzGqF3OTiAQoVokxRytHcY4U+UoJ8hTCCHeZETrI+6NYkBw+AYaNNhKM1T1qw6jVHdr9n8j3v//9hIQD5PP3jPXHZKUZllJDuUaCygIVuobJBeW22SggXwJwA4Ar49gVraK3FXQRbqfJpX8EIJhC/VrQ+OZ5BSmpxhyC0bMt9jGLjcmYWOWxhQsX4oknHkdpaeROv9PtJbEnXSx3p584EJ+QTqS5uTnhY8ONFMx3k2qurc/DY58QAVnOTCosUjyllGQICJ+WF3g46DwImhqH0ZtrC+UoVooglYhRwFwlwxZ5VrcfOpOD7NKeG7Dg3KAFPp9fRjeMmFnjGwBeo2l+iINeqhk0RZozbTYb5PL4de9z55JbzzBRmpqaEj42XMXq0ae+MvSKCjVy5WLobWT2vG+mC4iS+vLfFnyiQCXButo8bJ2nhVrCYpulODDR7FhUAJPTi7fPDmFv6wi8Xp+CZmJfTetQoL4kddN7kGgJrDs6OtHQUB/3uVpbW5PUq+nR09OT8LG9YSqWdYoEGMmAmaOqC+TQdxEBuRnA1zOZEmg6ApJPywuQzM0auRg7lxZhXU1uxCLa5/NHDeYRCHjjAoTUEgG+uKIEy8rV+K+97XAF3MMfYP4opCJiCkw1w+ZIR8Th4aHwyZE158+fT1KvpkdHR0fCx3rCVKxLhtTPIKD5zI53EftNEa03mfzKqSxJVEAYxXovs/Dm8XjYNDcPt60oJtlAfH4/HE4vyfbhdHvgdvtCKWomQywKBPVIxEKIxQLMK1Lg5uWleO7oWLWutVWalFh+JuJwR24MBj1a46V9GgMz2SSqJobjdLmJ23uqrYhLypQkJZI3cFHdkUkBSdTV5L+pVQrXNxbgS2tKIeLzYDDZ0TdkwrDeCpPVSdJzTiUcoGlsmPczx/UPmWF3uomFJ5y5henxhI6mZre0JLaW6OnOmhSzaGlpifsYgyHSQKF3pF7bkYn4KB+Le4+91Z9iEhGQLdRGjWVz1Li+sQgGsx39w2aYba6EExYEYQRKp7fhwPnh0HMioYBkGUkHZlukZcliMSd0rmxZgzAMDMZfcaCp6WzEc9G+n1RQVRBSpzdmMjQ8EQH5GfMnRybCHStLSa5Ys9XFaqZgi87mweGuMQ9ZZu3BMrnItPFFMWUODCRWziJR1SwVdHfFX3TUFkUYon0/qaCxdFyN9i1paTQK8Q67mmCB/Svna2G12MkCPNkc6DQF0+YTkpUsgA1WT+QAOHcufvXEmOD+Saro7IxfQKIZGaze9Fyp6grGqdSJ7XImgXg/7e0g/kICLMhPzYbdqD2QPjOcItXUTnXJwmiJvGrG424SpK0t425E4xgZib8UYMB6Nx6jOfpufbJRSfgoHQsDWJOWRqMQr4CQsgKNJUoIUuTVua/TTGKww6kpSF+ocvjMFeTs2UhdfCoS0flTSUdHZ/zHdEYeE+37SRVLykLrztq0NTqBeAVkJfOnmGWsQ7wws8eJ3pBqQnalFFIRCcvMJMxawhfnwOidxuZcKjAa2fqFjtEVRUDSSb4ypDnUB8Os0028AkIu5cGqq8lmX0dIOEaZCxjzIF4371QR72abyZRYGG6qGByKP2WRTpdYrZNksWD8xnBySwmzJKEVVyrsGMM2D05cCplT/0INAqjMS61zIlsMhviuwBcvXkxZXxIhkRktmpk3nRSrhFBKQ7PIpkz0ISEBMacg+nJCPPfeYN+KlelboCcTzyShujMFvV6f6S4Qwgw0GbFkxSsgZOdrIIrH63S5MBKyFH1G69YRSliErKaD9vb4VKzpOAhmA+3t2ZFwPez3b8xE+2wFpIF61ZJVW+twcp3Wes1uDJtDQvcMbY8QSAKdeaKZPGMxMpJZ/T0ag4PsP0O8RolUUT5m6k1NCs0piCUg6wH8iUb7naVXdhKX0WcMlBZLFueHxtnWX6a1sgnFyuwQkHj3NcITzmULXV3srVK9vZdS2he2TMgYWZzu9qMJyHJa9ecAgHtpGpYI9rYZk5bQuH1MvXqXlgQmV4sijSIi1X+miHdGGB6Of2Mu1dhs7Df5BqJUx80E2vFFTONLApYEwu21EgD/Jxh/waAQC0ixxqpcCfLlQlJ/w+gE+k1OsmbYe9GA7XOnFyPOyNjAWB6q9+k9Cb7Ik2dPXruWOKMDL12aXphspknE+zcVaKTjxsDCdEcYhgvIiwC+wDwQCfjYsTAPS6MkZ2Mu7QsLJLi8Vk1S5ds8wHT28br0zvBgqr30nuy3VOSlPkBqIjKphIbFj0c3PJz2viQbk4m9V/JkngBy2fQqTMVLcc64GSTtA0JItzX+NygczKLohvpcFLAY9TlsQmqnoN8SMocyo/IkfUz2QMS89C8UNbLon7u9vZ2sKwSCmVuUK569nIsXLkR9Podlpa1kIRq/BqlOa+N0DfJjGhxPCr7/w8oCVsKRDAwOHzr0IetVZ5g7AXHCKc9PTwxIOGL+5ELZ2souhDYeXT+dmM3sZ5DJYllifT+polAT8sWbXr2JBGAk4VvMgzyFGDfW5yWlzt9UePw8vN2qx+c941zCGf3SHF5cXiFIvyUoRzH5zr3dzm7gx6PKpBO2purRUf2kQh7r+0kVsjGhTH4psSlgZhCy0LhuYV7KPHTDYVrYfVaHMwNWlGvlUMnH6bQSmsmCIBCkf5GulU5uNutlmUTO6UxdJvR0cP589NmDz+MhN8b3kyrCEntkxoq1qESJ6tz07Fh3mzxYW6vFQ1doQsH/NrcP5wetaBm0oqnXSKxkDEW5qqBTb9oozZ38Csk2hNbhSE9YaqpomiTRXFUaww7CyVXLAR2Jzky7WwURzSvq0jdz1ZeosL5GMy4zhlzEx9JyFW5fUYxtCwtDzyszoGLNiSEg2ZIILtVYJlmr1BWk36rIkDtW/n5ZumcRfmmOdKKtOaXw/LEH/RtnAm5Yq2vyUp5eJhoSAVCqie5iP50MhTOJyQLE8jPkOLquNlRPhx9MYp4uhGVj6VXSgtszuRXkk4sGGGwBV+FrG/LT2KvxVOVJ0WeIXKSy3SwUCNhbARUSCS6vqUG+TAq3348P29rRFyOWZENNNeZpApuzZ0ZGcKyLfWqhnBx2RqCzZ6NfCJaWZWYGqcoVo740B819xKjzdQC/oQadlCMsVKTXru1ye0iiB/6E6cHp8WPP6cDsMb9YhTma9ApuOAuKVTjYNhrxvNlkIuWY586ti3m8TMbO0vPwxg14eMN65ErGPqvb58NzZ87ie+++C7NjbLG/rmIOfnv9dViYN7462ZFLfXhgzx5cGJp6IzM3l11dlTNnzkQ8V1ekIhnoM8U9a8vwvVeJgDBXzn8E8Ot0tJt2LcbvByy2SCvP0W4T9DTd/9b5mZs9GJj1kEgY/cLBxoVEpVJN+Z5/23IZfnz51nHCAbIxxsc9SxbjF2GlmEtycvDcbV+MEA6G1WWleGHXLuSyyJrIpl9nzpyF1RpZBm5FRerLTsSiQCHEwtLQDPg9WlIj5WTE2clsc0WkCzrSGdjlzZGJsHxOWj77pCjEfKyrjj4gjh2b2hVIrY7d//qiQnx388aY77mroR4NxYFSc19dvQp50sldPObm5+HZ226dsl8azdQq1uHDh6I+v6w88zX+r6wPVe9hrqC70tFmRgSEEY5R45gptMfgRNOlwKbhpnkFacnBOxU3LCkiuYYnsnfv3mmf+ydXXgkei8Dlf1y1CjkyGe5fsXzK924sL8d1U2SgZ+Mm09wc6aS4rkaLgiyI7FxcIg/3zXogHW1mzF3W7nTDag+oVB+2jrmSb6lLuzdBVDQyIa5pjAw/+Oijj6d13tr8fFxZXcXqvTctXIhdjYugYlFsk+HLy5ZOq28M+/bti3juusWpLZoaDysqQrPzanpLKXxfSlIwjHHJPHlsNjOLmGwunKIuJxvr8pArz44AKYYr5muhVYwfnE6ng1WeLG2U9QLDNTGK9U8kVyohC3m2bKuuhjDGLFFXF9u4MDqqx+efj1chr15UlLI0T/Hi9/vRWCCFcMzD4u5Ut8kftiQ/A8Oo3YvXW/T4zb4+PH44dmTaW2eGYbQH+rBtQQorRCaATMTH17ZWRyzY9+/fP+WxJcUlUZ+/f+XU6lI4lUr2plU+j4ettTWT96kkep+CfPrpJ+P+X1SmJjXfswWD2QGpgIdFRaH10F2pdoHnD0QpGJMoZqcXL50ZwaMH+3C81wSTY2rhO9AZmD3qChQoVmafK3lVrgT/cmXtuPXIiRMnpjxOKo00U1dqc1HLci8iUTZUVEz62lRrkHD1qq5Ija9vqUaUZVhGcLm9sATKsuGy2pABRUNNvimD3292JaU449FeC353qB9NAxbWAf/dRhdsroAKVl8og95kT2qW+GRRmyfFV7fUQCoKDDA2KpZMFml2XTrFFTwZLJtGG4cOBSxYtQUKfH1L5cRYjIzh9fkwErZxmyvlo1obWqx/JZVt8z1eHxnUidJtdOOxwwN4s2UEjkB9PyeA39OEDzE52h3YDBUL+agvlJOrhMGUnY5+jSVy/GDHPMwrUuHgwYNTxqjX1ETG9lSwMLNOl9VzorsqFRTEVl9NJhPOnjpJKnt958paqMRZYEqk6E2OiBJ+9cUhNWtBKssjkAn07GBiAT4tww48eaQPg2Mpe07QlD1fDSvhHBWvn4eW4UC7c/NlkAoDP4jV7obDmZ1J10pUInz3ymrcvb4S+6NYe8KRRtm3qNOk3ilUKRSiJoowlJfH9vFrOXkE372igrj4ZItaBTIeXLBHUdUbi8bN0Lenqn3yVbSPOGCJo4Kpxwe8e9GMF06Oi1t+hJrdgvlxYian7dTbQ1eFJROq144YbVmTlykaW2pzUKCPdMcIp6ysLOK5huL0ZK0pjbKrPpX7i6N5L0rS7Jc3FW6Pl6jd0WAuqPMLQ5/zllT1gTjXMDre/k4zrp43tTuB3QM8fXwI/WMbfccBfBHAxGS0Mcsrne4PzB5iAZ8shMPx+fwYGrWhKE8BXrbk/ZlA94mPsf6+H076enEUYXiptRVNAwMQCgWYk5cHDT85RgkH/NC73BgYGYHD78elKJWt5s6dG+MMfvQ1fZaUviQLj8eHoVFrzJJ+jFreGsipxkzNlwH4JNn9ENIKoptP91txxVwNhDHGo9Pjw5+ODmHIElKp3qLCEdcihpkbWgYDP+LSMiXEUbbOmavHiMGOPI08a3JjhWMz6NBz6lPMWRI96Xh5UR6UMgks9jG/sz/sP5DGHob1RatAY+Xka5CL+/fAbsyeTJB+vx86g3XK6mXzx1ceuzFVAvIEIyA2lweftBmxbZKdbEY4njkxHC4cf6Kux1MuYDx+HoRh4bwXR5xwUfVqVfnkiRnsTjcpEJqrzo4M7xM588afJhWQlQ1z8dtd88me0KjVjQGTA16PFx7wMWrzwEY9df3gweNPTOnnwQ9hWOaX/BxlKMhMKZegUClCWY6EeKQuro+eudPrduHE7t8n1H6qGDXaY4ZFBGHUrIZiZdDIdCuAh5PdFyHNhbuDmQn2dRhQliPGgoLxA3LU7sFfjw9ixBZaPH8NwP9Mce5QusQRmxtFYa7Sp2iZA7VUiIIp3O0tNhdxjc9RpjcfExsGWo9jtLsV2orI3XE+jQnRygTkVpef2f67JwkDbv/sXZiHsyPNqM/vx6jBBnscRprFxfKggJTShIPR44UTJHjpYgY8SXnx/MmhcVYtZuaYIBz/LwvhQPiaxBV2NXB5/WimuXgXFrHzEDVZnDBbszMRwtm3n850F1jhtETmxPI47Ti5+7GM9CcaBpMjLuFgmFsgJ4kOKUmPNgyemVFAbwsurF8+PYxnTujwevMIfnd4IFw4mLn4RyzPHYo40lnHzHTtemeoBmGtlr3VxGB2ZKWQXDzwBkyDkVF9Fl1fRvozGf0tRyOea3rnmayZPZjfN+i8Gg98+FGjDc3OU/v8x33+MT4CcAUA8su26aw4fskCU8BPilFsf0L3N9gSik/VO8ZMyO26wFQvFPBQF2elXOZLNFqSW3ohGez97cNw28dbjnpOJH29OC3splEcefZXgN8Hj9OBo8//Bp+/8rtMd4vArDmmc/EL00TKaVWCpDExhvIwgDK6fX8vDUw5Q9WqROpxHQGwWm8fE5A+Wp6qQC5KyNeeUbc8Xh/ycrKjdiGDvvci3vyP+3DVdx6DTJ0HXUczLuzfk+luRXD2nWfQsvcF+Dwe+P2Z32diNIkRoz3qRmA81IzXRBYDODjdvgWZLMj4cXqbLscYAblkDFz1XT6gj+a8qslPfIDb7G74fFZiAuZniQ2YWazv/tebocgrhrGvg6bIyz687uQ5p04HZkGu09vgdE3fa0ItERA/OerqtIEuBZJCqp0KPmT+jFpdMDl96Bi1h3bIqzTTi1BzOD0YGrGS/ZJswWHWY6SzBR5X9qmB2YTb7cWgzpIU4QgSttm8LWknTYOAvBV80G1womcsUTUqcqdv9mSEY3DEEnKD5sh+TFYnBkYsEc6H0yUsC05JsDpAMki1gNiDhT/PDdtgdgW+lIpcGSRJCjz3+0H8dZgFPEf2wqw3mN/JmKLfqXL8BTdpobjpSHTErFbntwzaoKT1RFRJqCsyEbPVSaZsbY5s0pQ9HJnB5fZi1GhjtTueKCXqcQv1pIVBpsOx+SlQh0ijPaBzVoVJu8PjR8uQHZ/1WtFrmp41g/khBnQWIiz+LAy8+nuDWYgbLQ6iBidLOFxeP073W8l4uRQ2XgTwQyEJXe+nn72Cko4ZpAlAb3jSYUbanR4f9ndZcKjLBE9YRdhdS4qwqHB665PgplOeRs7NJhmCuVjp9FZ4k1XplfJKkx6tg2NZR0s0cmypVmN+vgQlajEuDpOL8KJktZfO0XNV8IGPx8ObLaNoG7GFQmzLNFJcNT8P1RoRcYGfLj6fnwgJc3aJSJC1bvOzDeZ7N1qc0BvtSauCHE6hQgixSAid1QWPzw+Lw42zAxY0DztIrjGjgwgIc4X9RTLaS9eoUQG4MFE3FPJ5WFKmwvJSBcrUqUtMxufzoFZIoFJkV0DQbIJRaRnVNlrWzFTg9PrROmzH4W4T+oxRd+GXhdW8TJh0CMhOAD8DEIrYYa7mq+aosalKBZUkfZOYWCSARiWFRJy5JMyzEQcJS3BmbE/q4qgTH7UZcckQ4bH8PM3jGzP8OxapEhA+zVn0IIA1wSdlIgFWlKuwao4qKRVyE0UmFUElF3OCMk0cLg/MFie5zwbODdtxos+K1qFxfnFOWsX5jwBOxXvOZAuIlM4Y/xq+UMqRCrG2SoNlJfJQcoZsQCYRksAiiZhbo7CFUaXsTg9Rp1zu7PFiCGfA4sHBLjOaB8xknRLG09SvsIPtuZI5KhoAvEDvQ2yp0+KyalXaFjuJIBLyoVHJIJVwM0osrHZXyFl0JmBw+LC7aQRdo+OCXt20tsiPwoP6JiMZ47aSusKH8qQyi+/VFTnYXK3OqhljKgR8HpRyMRRycXhl1b9rvF4fceVhFt8zdW+px+TGBxcN6BoZJygDAL4B4OVYx05n9MoAfJ+qU2SlzQgGs8bYVJ0DpXhmDzCJSAC5TAS5VBxRDWu24/X5iMc0M2Okcvc73XQb3djTMoJh8zirVyvNrfBBtGMS/eU3APgLgFAe/9IcCXYtLoQ2jQVB0wGzNJGIhFRYRLN2rcLMDla7m8RmZMuiOxV4/Twc6zXjgwujcHvHzYi/oBavcU8m8mv/kJ6IBHSopUJcVqPBslJFRqrSphNmJpGKhWTNIpOKZvwuPbPItjvdxP2cEYoZqkElhN7uwXsXDKH0U5TPAfwTgFB+pniGdAmAJwFcHXxixZwcXDk3J2meuTMNRmAkYiGkYgGpyyEWCbJWHWPUJkYgPB4fcep0ur1p2dDLdi6MOvH+eT2GxtQuO50ESJFQtr9mA4B9NIMdlGIBblxchLrc7Ciskk0wswszy4hFQggEPCI06VbLfH4/mRU83oBQMAIxm9YSycbtA7F2NY9P4v5nAPez+eXq6ZRD8pKW5kjxxcV5ZG8jE9g9gGyGWWOFAj4RFmaWEQp44PMD/wv4fLLGEQj4rEOHmat+0MzKzAper59Ymrw+P9nJZl6bqTOD0+uHkPlueJnp/+f9DrzdPBS+d/LeVL/KCgB7AZB0i0vLVLhugTZj2b8dHj8ePzKAb6xPfZ0NjvSzr9NM3Nm31U6ebTPVjNq9+POxfhhpJp5YQ72Emr6IcKyrycON9ZkTDoZjvWaMWF3glIXZid7mwr52PYzOzO3Qa2UCfGVtGVSygPNsrOH+y6BatbJchatqU1oKbkrMLh8Od5uhkQozV5qXI6Xk01LTBzrNGe2HUsTD/auKkCMVTDrWlgK4k3kwJ1eGHQu16e3hBLx+4OXTQ7A4PVjAMl0px8yjvjCQSPBItxEdhswm4siR8HH3ytJJBSRUsefKuZqM+1Ht6zShi2ZEWTtWJ5tjlsFoB4toMaU9TTrY3ZlVpvNl/EkFhBTnLlRJMCcndYFMbGjXO7GvPZB4eVGxAhrpzN6c44gNc0EWC/gYtbnx/KlhYpjJJJMJCAkKV2d4MDYN2vDc8UFiwpSKBLhibupr/HFkFrVEgM21gd+5S+/AX08MwZ5BIZlMAtYCWMZMcavmqIgTYjphvo4P2014+9wIiWtm2r9jWSGKVdzG5N8DFRoxug0u4g5icnhIuYy5+TLIRek3z0wmIMwK6U6Pzw+HB5iXxuIvLq8fL58dxfGesRqg1y7IQ31R9iSr5kg9CwplaNU5YXN54XD7cKTHDK1CjCJl+i6SzBJoMgG5CGA7I8yDFjfkYkFKkyqAzhpNg3a8ckaHbv1YbPG2eXlYV5FZEzNH+mG0hvmFMlwyusgswtAyZIPO7kWpWpryOCOnx4fnTg7HNFBVA3g3mGyhNl+Oy+tyUaZKrp+Hz8/DyX4rjvaY0G8a89NXSYS4YVEB6rSZNRJwZBan1489zSM4OzDmdcvj8bCoWIn1VWqUKJM7Hr1+4PNLFnzcZoTN5ZnSgssIySs0hQqhsVSN1eWKaVu3hm0+HO81EeGwR4k/2FKnxZZqzqTLAQyY3Xj+tA6GKEnKq/LkaCiUYXGpEtPJA2L3+HFmwIajvRYMh+UPZjNPMcr/ozSkNiSuOTIRmVUqc8SkECefz0eBQhzhaObx8zFscZDF9rDVg26jC50jNmLGm0hhUTGGBgdC/yskQiwqkpNyv8VqMeQzKHyXY3oMWT3oN7vRNGjF+bAsJSq1Gm63Gw77+BQ/Aj6fJLCeo5GgVC2GSsyDRCwiAXwTR43Fw4PJ5iCOr30mF6k80D5im5gFsgfAv8Uz4ooA/AutZViW2MeORKlSYcXajbjj/gewYet2fH74AB792Y9x9OC+iPfmysWkrLFGJoRGwoNCKoZawgcvC6olcSQCD16eADqzgyyIB0xO6GweDFpcJF4lnFxtHq78wk587Ts/gEAgwCt/eQpvvvICWpvPJLtT+2iaoD+DbTwIny/AirXrl67asHlD/eJlG10ux41739oj3ffBuzAZI6unToVILMbGrdtx9Q0345qbbgFfEGkruHiuGU8++hu89/puOCYpYcwx+ymvqML9//Rt7LzzXqKlTKS/twd7XnoWb7z8HNovnE+ojdp5C3DjbXdh0bKVbZ1tF/7WdOrEgYMff/BRX0+3PqaA7Lj5i9vuvP/Bby1eserKyRJdG0Z06Lh4HhdbWzDYdwm64aGI9xQUFqGwpBRlFVWYV9+A/MLiuD7Amc+P4Phnh9B85iQuNJ9F+4VWeDyzN27675XikjKUV1VjwaLFWLV+E5atWQ9tfgHr4/1+Pzovnse5s6cxqhtGT2c7HI7xmX0kEgnmVNUgNy8f8+oXoW5B/aQBbXabbTCmgPz893/62Y6dX/wmzWCSVdisFvIFcIIy81EolKioro2qSWSaKVWsgqJizar1mzev37pt07LV6zZX1tQlrXoPB0cWYjh64NNPjx7cd+DogU8PxG0WUqrVgsrqukULFy+dm5uXX1JaPmchAEHt/IX5Eqm0smHJcmZOrEhN3zk4poWjr6f7gn5UZ+nv7TmvH9E5AeiaTp3o6O/tbunt7uzoarvYF35Ayuymc6pqclTqnGqlSiWqqKmrA6AqLZ+jyM3LrwFANlEUKjW/sqa2jNZj5zcsWa5lVNFsVOk4sgbD0EB/9/BgvxuA02ax9HS2XTCGv95+vrXDbrf5HHZbd/v51mEAlvYL5y447Pa4zZ1Zu7GQk6sVzFvYMIealIViiRRLVq4upqlOiQBV1tbJCotKSgAUBj2Q5UolI2iFVOi0aSozxxEbZqWss1rMQ82nTpjCnjcAGGg6dWLIZrUwg9cLYHhooP9SV9uFYFih2WqxtDefPhG/uTQJZK2ApJqS8jmSXG2+itEaaYGfca4BAoEA8xctZl5TUIGU0PdOSu38hXKplKSWlFNHUFFQcOnx6fSbsQKh8P3gYLMD8PT19jj1I7pYBSE99L3McQ79iM7W39sTrUoN0wYz4E3tF85ZHXb7zEynwsHBkRic+sHBEQNOQDg4YsAJCAdHDDgB4eCIAScgHBwx4ASEgyMGnIBwcMSAExAOjhhwAsLBEQNOQDg4YsAJCAdHDDgB4eCIAScgHBwx4ASEgyMGnIBwcMSAExAOjhhwAsLBEQNOQDg4YsAJCAdHDDgB4eCIAScgHBwx+P8DAAD//5PYFFrBhVFBAAAAAElFTkSuQmCC;fontSize=18;labelPosition=center;align=center;spacing=-10;fontFamily=Verdana;fontColor=#182633;" parent="-sU8y2Q3AdZbQh8XbGMl-1" vertex="1">
                    <mxGeometry x="-850" y="230" width="100" height="100" as="geometry"/>
                </mxCell>
                <mxCell id="LqsbPOSO8fhI4KLYFztt-86" style="edgeStyle=orthogonalEdgeStyle;rounded=0;orthogonalLoop=1;jettySize=auto;html=1;dashed=1;dashPattern=1 1;startArrow=none;startFill=0;endArrow=classic;endFill=1;strokeColor=#F99007;strokeWidth=2;fontSize=13;" parent="-sU8y2Q3AdZbQh8XbGMl-1" edge="1">
                    <mxGeometry relative="1" as="geometry">
                        <mxPoint x="-502.1399999999999" y="1395" as="targetPoint"/>
                    </mxGeometry>
                </mxCell>
                <mxCell id="A7LO37rXqU6r63j_RT8w-58" style="edgeStyle=orthogonalEdgeStyle;rounded=0;jumpStyle=gap;orthogonalLoop=1;jettySize=auto;html=1;exitX=1;exitY=0.5;exitDx=0;exitDy=0;entryX=0;entryY=0.5;entryDx=0;entryDy=0;fontSize=16;startArrow=classic;startFill=1;strokeColor=#55D397;strokeWidth=2;dashed=1;fontColor=#182633;" parent="-sU8y2Q3AdZbQh8XbGMl-1" source="7xWn3VJRYGwJ2Aq6T1ND-1" target="A7LO37rXqU6r63j_RT8w-55" edge="1">
                    <mxGeometry relative="1" as="geometry"/>
                </mxCell>
                <mxCell id="7xWn3VJRYGwJ2Aq6T1ND-1" value="" style="fillColor=none;dashed=1;verticalAlign=top;fontStyle=0;rounded=0;sketch=0;fontFamily=Verdana;strokeColor=#4EC4F5;strokeWidth=2;dashPattern=1 1;fontColor=#182633;" parent="-sU8y2Q3AdZbQh8XbGMl-1" vertex="1">
                    <mxGeometry x="-510" y="1180" width="1740" height="680" as="geometry"/>
                </mxCell>
                <mxCell id="7xWn3VJRYGwJ2Aq6T1ND-0" value="Main VNET" style="aspect=fixed;html=1;points=[];align=center;image;fontSize=14;image=img/lib/azure2/networking/Virtual_Networks.svg;fontFamily=Verdana;labelBackgroundColor=none;fontColor=#182633;" parent="-sU8y2Q3AdZbQh8XbGMl-1" vertex="1">
                    <mxGeometry x="-479.9999999999999" y="1160" width="67" height="40" as="geometry"/>
                </mxCell>
                <mxCell id="A7LO37rXqU6r63j_RT8w-44" style="edgeStyle=orthogonalEdgeStyle;rounded=0;jumpStyle=arc;orthogonalLoop=1;jettySize=auto;html=1;fontSize=16;startArrow=classic;startFill=1;strokeColor=#FFCC3E;strokeWidth=2;entryX=1;entryY=0.75;entryDx=0;entryDy=0;fontColor=#182633;" parent="-sU8y2Q3AdZbQh8XbGMl-1" source="7xWn3VJRYGwJ2Aq6T1ND-4" target="7xWn3VJRYGwJ2Aq6T1ND-48" edge="1">
                    <mxGeometry relative="1" as="geometry">
                        <Array as="points">
                            <mxPoint x="215" y="1345"/>
                        </Array>
                    </mxGeometry>
                </mxCell>
                <mxCell id="A7LO37rXqU6r63j_RT8w-46" style="edgeStyle=orthogonalEdgeStyle;rounded=0;jumpStyle=arc;orthogonalLoop=1;jettySize=auto;html=1;entryX=0.5;entryY=0;entryDx=0;entryDy=0;fontSize=16;startArrow=classic;startFill=1;strokeColor=#FFCC3E;strokeWidth=2;fontColor=#182633;" parent="-sU8y2Q3AdZbQh8XbGMl-1" source="7xWn3VJRYGwJ2Aq6T1ND-4" target="A7LO37rXqU6r63j_RT8w-15" edge="1">
                    <mxGeometry relative="1" as="geometry"/>
                </mxCell>
                <mxCell id="7xWn3VJRYGwJ2Aq6T1ND-4" value="Databricks Engineering Hosts Subnet" style="whiteSpace=wrap;html=1;labelPosition=center;verticalLabelPosition=middle;align=center;verticalAlign=top;sketch=0;fillStyle=zigzag;fontSize=16;fontFamily=Verdana;opacity=50;fillColor=none;strokeColor=#4EC4F5;strokeWidth=2;fontColor=#182633;" parent="-sU8y2Q3AdZbQh8XbGMl-1" vertex="1">
                    <mxGeometry x="-380" y="1280" width="440" height="130" as="geometry"/>
                </mxCell>
                <mxCell id="7xWn3VJRYGwJ2Aq6T1ND-41" style="edgeStyle=orthogonalEdgeStyle;rounded=0;orthogonalLoop=1;jettySize=auto;html=1;fontSize=13;startArrow=classic;startFill=1;strokeWidth=2;fontFamily=Verdana;fillColor=#f8cecc;endArrow=classic;endFill=1;strokeColor=#FC5F57;fontColor=#182633;" parent="-sU8y2Q3AdZbQh8XbGMl-1" source="7xWn3VJRYGwJ2Aq6T1ND-5" target="7xWn3VJRYGwJ2Aq6T1ND-40" edge="1">
                    <mxGeometry relative="1" as="geometry">
                        <Array as="points">
                            <mxPoint x="-216" y="620"/>
                        </Array>
                    </mxGeometry>
                </mxCell>
                <mxCell id="7xWn3VJRYGwJ2Aq6T1ND-6" value="NSG" style="aspect=fixed;html=1;points=[];align=center;image;fontSize=14;image=img/lib/azure2/networking/Network_Security_Groups.svg;rounded=0;labelBackgroundColor=none;sketch=0;fontFamily=Verdana;fontColor=#182633;" parent="-sU8y2Q3AdZbQh8XbGMl-1" vertex="1">
                    <mxGeometry x="-360" y="1260" width="35.41" height="43" as="geometry"/>
                </mxCell>
                <mxCell id="A7LO37rXqU6r63j_RT8w-62" style="edgeStyle=orthogonalEdgeStyle;rounded=0;jumpStyle=gap;orthogonalLoop=1;jettySize=auto;html=1;exitX=0.5;exitY=1;exitDx=0;exitDy=0;entryX=0.5;entryY=0;entryDx=0;entryDy=0;fontSize=16;startArrow=classic;startFill=1;strokeColor=#55D397;strokeWidth=2;fontColor=#182633;" parent="-sU8y2Q3AdZbQh8XbGMl-1" source="7xWn3VJRYGwJ2Aq6T1ND-25" target="g8gtufJMEGG4L0LgHNhl-12" edge="1">
                    <mxGeometry relative="1" as="geometry"/>
                </mxCell>
                <mxCell id="7xWn3VJRYGwJ2Aq6T1ND-25" value="Private Link Endpoints" style="whiteSpace=wrap;html=1;labelPosition=center;verticalLabelPosition=middle;align=center;verticalAlign=top;sketch=0;fillStyle=zigzag;fontSize=16;fontFamily=Verdana;fillColor=none;strokeWidth=2;strokeColor=#4EC4F5;opacity=50;fontColor=#182633;" parent="-sU8y2Q3AdZbQh8XbGMl-1" vertex="1">
                    <mxGeometry x="-380" y="1666" width="1480" height="150" as="geometry"/>
                </mxCell>
                <mxCell id="7xWn3VJRYGwJ2Aq6T1ND-40" value="e.g. pypi.org" style="html=1;strokeColor=none;fillColor=#0079D6;labelPosition=center;verticalLabelPosition=middle;verticalAlign=top;align=center;fontSize=14;outlineConnect=0;spacingTop=-6;shape=mxgraph.sitemap.cloud;rounded=0;dashed=1;sketch=0;fontFamily=Verdana;fontColor=#182633;" parent="-sU8y2Q3AdZbQh8XbGMl-1" vertex="1">
                    <mxGeometry x="-291.88" y="586.86" width="150" height="95" as="geometry"/>
                </mxCell>
                <mxCell id="7xWn3VJRYGwJ2Aq6T1ND-5" value="NAT Gateway" style="aspect=fixed;html=1;points=[];align=center;image;fontSize=14;image=img/lib/azure2/networking/NAT.svg;rounded=0;labelBackgroundColor=none;sketch=0;labelPosition=center;verticalLabelPosition=bottom;verticalAlign=top;fontFamily=Verdana;fontColor=#182633;" parent="-sU8y2Q3AdZbQh8XbGMl-1" vertex="1">
                    <mxGeometry x="-250" y="1146" width="68" height="68" as="geometry"/>
                </mxCell>
                <mxCell id="7xWn3VJRYGwJ2Aq6T1ND-42" value="External Sources" style="text;html=1;resizable=0;autosize=1;align=center;verticalAlign=middle;points=[];fillColor=none;strokeColor=none;rounded=0;dashed=1;sketch=0;fontSize=16;fontFamily=Verdana;fontColor=#182633;" parent="-sU8y2Q3AdZbQh8XbGMl-1" vertex="1">
                    <mxGeometry x="-291.88" y="560" width="150" height="20" as="geometry"/>
                </mxCell>
                <mxCell id="7xWn3VJRYGwJ2Aq6T1ND-48" value="" style="rounded=0;whiteSpace=wrap;html=1;labelPosition=center;verticalLabelPosition=middle;align=center;verticalAlign=top;horizontal=1;direction=south;fontSize=15;sketch=0;fillColor=none;fontFamily=Verdana;strokeColor=#216FF8;strokeWidth=2;fontColor=#182633;" parent="-sU8y2Q3AdZbQh8XbGMl-1" vertex="1">
                    <mxGeometry x="70" y="444.72" width="580" height="379.28" as="geometry"/>
                </mxCell>
                <mxCell id="7xWn3VJRYGwJ2Aq6T1ND-49" value="Customer Managed&lt;br style=&quot;font-size: 14px;&quot;&gt;Subscription" style="verticalLabelPosition=bottom;html=1;verticalAlign=top;align=center;strokeColor=none;shape=mxgraph.azure.azure_subscription;rounded=0;dashed=1;labelBackgroundColor=none;sketch=0;fontSize=14;fontFamily=Verdana;fillColor=#FC5F57;fontColor=#182633;" parent="-sU8y2Q3AdZbQh8XbGMl-1" vertex="1">
                    <mxGeometry x="-639.9999999999999" y="930" width="74.62" height="60" as="geometry"/>
                </mxCell>
                <mxCell id="-sU8y2Q3AdZbQh8XbGMl-49" value="Microsoft Managed&lt;br style=&quot;font-size: 14px;&quot;&gt;Subscription" style="verticalLabelPosition=bottom;html=1;verticalAlign=top;align=center;strokeColor=none;shape=mxgraph.azure.azure_subscription;rounded=0;dashed=1;labelBackgroundColor=none;sketch=0;fontSize=14;fontFamily=Verdana;fillColor=#216FF8;fontColor=#182633;" parent="-sU8y2Q3AdZbQh8XbGMl-1" vertex="1">
                    <mxGeometry x="110" y="404.72" width="74.62" height="60" as="geometry"/>
                </mxCell>
                <mxCell id="7xWn3VJRYGwJ2Aq6T1ND-50" value="" style="whiteSpace=wrap;html=1;labelPosition=center;verticalLabelPosition=middle;align=center;verticalAlign=top;sketch=0;fillStyle=zigzag;fontSize=18;fontFamily=Verdana;rounded=0;fillColor=none;dashed=1;strokeColor=#4EC4F5;strokeWidth=2;dashPattern=1 1;fontColor=#182633;" parent="-sU8y2Q3AdZbQh8XbGMl-1" vertex="1">
                    <mxGeometry x="200" y="514" width="410" height="275" as="geometry"/>
                </mxCell>
                <mxCell id="A7LO37rXqU6r63j_RT8w-68" style="edgeStyle=orthogonalEdgeStyle;rounded=0;jumpStyle=gap;orthogonalLoop=1;jettySize=auto;html=1;entryX=1;entryY=0.58;entryDx=0;entryDy=0;entryPerimeter=0;fontSize=16;startArrow=none;startFill=0;strokeColor=#216FF8;strokeWidth=2;endArrow=none;endFill=0;dashed=1;fontColor=#182633;" parent="-sU8y2Q3AdZbQh8XbGMl-1" source="7xWn3VJRYGwJ2Aq6T1ND-51" target="7xWn3VJRYGwJ2Aq6T1ND-52" edge="1">
                    <mxGeometry relative="1" as="geometry">
                        <Array as="points">
                            <mxPoint x="929" y="634"/>
                        </Array>
                    </mxGeometry>
                </mxCell>
                <mxCell id="7xWn3VJRYGwJ2Aq6T1ND-51" value="Users" style="outlineConnect=0;dashed=0;verticalLabelPosition=bottom;verticalAlign=top;align=center;html=1;shape=mxgraph.aws3.users;fillColor=#D2D3D3;gradientColor=none;rounded=0;sketch=0;fontFamily=Verdana;fontSize=14;strokeColor=#66B2FF;fontColor=#182633;" parent="-sU8y2Q3AdZbQh8XbGMl-1" vertex="1">
                    <mxGeometry x="1175" y="605" width="66" height="70" as="geometry"/>
                </mxCell>
                <mxCell id="A7LO37rXqU6r63j_RT8w-67" style="edgeStyle=orthogonalEdgeStyle;rounded=0;jumpStyle=gap;orthogonalLoop=1;jettySize=auto;html=1;entryX=0.5;entryY=0;entryDx=0;entryDy=0;fontSize=16;startArrow=none;startFill=0;strokeColor=#216FF8;strokeWidth=2;endArrow=classic;endFill=1;dashed=1;fontColor=#182633;" parent="-sU8y2Q3AdZbQh8XbGMl-1" source="7xWn3VJRYGwJ2Aq6T1ND-52" target="7xWn3VJRYGwJ2Aq6T1ND-48" edge="1">
                    <mxGeometry relative="1" as="geometry"/>
                </mxCell>
                <mxCell id="7xWn3VJRYGwJ2Aq6T1ND-52" value="Azure Active&lt;br style=&quot;font-size: 14px;&quot;&gt;Directory" style="verticalLabelPosition=bottom;html=1;verticalAlign=top;align=center;strokeColor=none;fillColor=#00BEF2;shape=mxgraph.azure.azure_active_directory;rounded=0;dashed=1;sketch=0;fontFamily=Verdana;fontSize=14;fontColor=#182633;" parent="-sU8y2Q3AdZbQh8XbGMl-1" vertex="1">
                    <mxGeometry x="858.74" y="598.72" width="70" height="71.28" as="geometry"/>
                </mxCell>
                <mxCell id="7xWn3VJRYGwJ2Aq6T1ND-53" value="Web App" style="whiteSpace=wrap;html=1;labelPosition=center;verticalLabelPosition=middle;align=center;verticalAlign=middle;sketch=0;fillStyle=zigzag;fontSize=14;strokeColor=#66B2FF;fontFamily=Verdana;fillColor=none;strokeWidth=2;opacity=50;fontColor=#182633;" parent="-sU8y2Q3AdZbQh8XbGMl-1" vertex="1">
                    <mxGeometry x="214.5" y="589.72" width="178" height="60" as="geometry"/>
                </mxCell>
                <mxCell id="7xWn3VJRYGwJ2Aq6T1ND-54" value="Cluster Manager" style="whiteSpace=wrap;html=1;labelPosition=center;verticalLabelPosition=middle;align=center;verticalAlign=middle;sketch=0;fillStyle=zigzag;fontSize=14;strokeColor=#66B2FF;fontFamily=Verdana;fillColor=none;strokeWidth=2;opacity=50;fontColor=#182633;" parent="-sU8y2Q3AdZbQh8XbGMl-1" vertex="1">
                    <mxGeometry x="214.5" y="679" width="178" height="60" as="geometry"/>
                </mxCell>
                <mxCell id="7xWn3VJRYGwJ2Aq6T1ND-55" value="Notebooks" style="whiteSpace=wrap;html=1;labelPosition=center;verticalLabelPosition=middle;align=center;verticalAlign=middle;sketch=0;fillStyle=zigzag;fontSize=15;strokeColor=#66B2FF;fontFamily=Verdana;labelBackgroundColor=none;fillColor=none;strokeWidth=2;opacity=50;fontColor=#182633;" parent="-sU8y2Q3AdZbQh8XbGMl-1" vertex="1">
                    <mxGeometry x="411" y="589.72" width="178" height="60" as="geometry"/>
                </mxCell>
                <mxCell id="7xWn3VJRYGwJ2Aq6T1ND-56" value="Job Service" style="whiteSpace=wrap;html=1;labelPosition=center;verticalLabelPosition=middle;align=center;verticalAlign=middle;sketch=0;fillStyle=zigzag;fontSize=14;strokeColor=#66B2FF;fontFamily=Verdana;fillColor=none;strokeWidth=2;opacity=50;fontColor=#182633;" parent="-sU8y2Q3AdZbQh8XbGMl-1" vertex="1">
                    <mxGeometry x="411" y="679.0000000000001" width="178" height="60" as="geometry"/>
                </mxCell>
                <mxCell id="7xWn3VJRYGwJ2Aq6T1ND-57" value="Databricks Control Plane&lt;br style=&quot;font-size: 14px;&quot;&gt;VNET" style="aspect=fixed;html=1;points=[];align=center;image;fontSize=14;image=img/lib/azure2/networking/Virtual_Networks.svg;fontFamily=Verdana;labelBackgroundColor=none;fontColor=#182633;" parent="-sU8y2Q3AdZbQh8XbGMl-1" vertex="1">
                    <mxGeometry x="280" y="494" width="67" height="40" as="geometry"/>
                </mxCell>
                <mxCell id="g8gtufJMEGG4L0LgHNhl-12" value="Azure Services" style="whiteSpace=wrap;html=1;labelPosition=center;verticalLabelPosition=middle;align=center;verticalAlign=top;sketch=0;fillStyle=zigzag;fontSize=16;fontFamily=Verdana;fillColor=none;strokeColor=#4EC4F5;opacity=50;fontColor=#182633;" parent="-sU8y2Q3AdZbQh8XbGMl-1" vertex="1">
                    <mxGeometry x="-510" y="1890" width="1740" height="150" as="geometry"/>
                </mxCell>
                <mxCell id="g8gtufJMEGG4L0LgHNhl-13" value="Azure Blob" style="verticalLabelPosition=bottom;html=1;verticalAlign=top;align=center;strokeColor=none;fillColor=#00BEF2;shape=mxgraph.azure.storage_blob;dashed=1;labelBackgroundColor=none;fontSize=14;fontColor=#182633;" parent="-sU8y2Q3AdZbQh8XbGMl-1" vertex="1">
                    <mxGeometry x="172.95" y="1934" width="50" height="45" as="geometry"/>
                </mxCell>
                <mxCell id="g8gtufJMEGG4L0LgHNhl-14" value="Azure Data Lake" style="aspect=fixed;html=1;points=[];align=center;image;fontSize=14;image=img/lib/mscae/Data_Lake.svg;rounded=0;dashed=1;labelBackgroundColor=none;sketch=0;fillColor=none;fontFamily=Verdana;fontColor=#182633;" parent="-sU8y2Q3AdZbQh8XbGMl-1" vertex="1">
                    <mxGeometry x="291.95" y="1937" width="30.4" height="40" as="geometry"/>
                </mxCell>
                <mxCell id="g8gtufJMEGG4L0LgHNhl-15" value="Azure SQL" style="aspect=fixed;html=1;points=[];align=center;image;fontSize=14;image=img/lib/azure2/databases/SQL_Database.svg;dashed=1;labelBackgroundColor=none;fontColor=#182633;" parent="-sU8y2Q3AdZbQh8XbGMl-1" vertex="1">
                    <mxGeometry x="400.95" y="1937" width="30" height="40" as="geometry"/>
                </mxCell>
                <mxCell id="g8gtufJMEGG4L0LgHNhl-17" value="Azure Key Vault" style="aspect=fixed;html=1;points=[];align=center;image;fontSize=14;image=img/lib/mscae/Key_Vaults.svg;sketch=0;labelBackgroundColor=none;fontFamily=Verdana;fontColor=#182633;" parent="-sU8y2Q3AdZbQh8XbGMl-1" vertex="1">
                    <mxGeometry x="503.84999999999997" y="1934" width="43.2" height="45" as="geometry"/>
                </mxCell>
                <mxCell id="g8gtufJMEGG4L0LgHNhl-19" value="" style="aspect=fixed;html=1;points=[];align=center;image;fontSize=14;image=img/lib/azure2/networking/Private_Link.svg;dashed=1;labelBackgroundColor=none;strokeColor=#000000;fillColor=none;fontColor=#182633;" parent="-sU8y2Q3AdZbQh8XbGMl-1" vertex="1">
                    <mxGeometry x="-367.39" y="1640" width="50.18" height="46" as="geometry"/>
                </mxCell>
                <mxCell id="A7LO37rXqU6r63j_RT8w-50" style="edgeStyle=orthogonalEdgeStyle;rounded=0;jumpStyle=arc;orthogonalLoop=1;jettySize=auto;html=1;entryX=0.148;entryY=0.009;entryDx=0;entryDy=0;entryPerimeter=0;fontSize=16;startArrow=classic;startFill=1;strokeWidth=2;strokeColor=#55D397;fontColor=#182633;" parent="-sU8y2Q3AdZbQh8XbGMl-1" source="A7LO37rXqU6r63j_RT8w-15" target="7xWn3VJRYGwJ2Aq6T1ND-25" edge="1">
                    <mxGeometry relative="1" as="geometry">
                        <Array as="points">
                            <mxPoint x="-160" y="1633"/>
                        </Array>
                    </mxGeometry>
                </mxCell>
                <mxCell id="A7LO37rXqU6r63j_RT8w-15" value="Databricks Engineering Containers Subnet" style="whiteSpace=wrap;html=1;labelPosition=center;verticalLabelPosition=middle;align=center;verticalAlign=top;sketch=0;fillStyle=zigzag;fontSize=16;fontFamily=Verdana;opacity=50;fillColor=none;strokeColor=#4EC4F5;strokeWidth=2;fontColor=#182633;" parent="-sU8y2Q3AdZbQh8XbGMl-1" vertex="1">
                    <mxGeometry x="-380" y="1470" width="440" height="130" as="geometry"/>
                </mxCell>
                <mxCell id="A7LO37rXqU6r63j_RT8w-17" value="Container Runtime" style="aspect=fixed;html=1;points=[];align=center;image;fontSize=14;image=img/lib/mscae/Databricks.svg;shadow=1;labelBackgroundColor=none;sketch=0;fillColor=none;fontFamily=Verdana;fontColor=#182633;" parent="-sU8y2Q3AdZbQh8XbGMl-1" vertex="1">
                    <mxGeometry x="-250.42000000000007" y="1515" width="41.67" height="40" as="geometry"/>
                </mxCell>
                <mxCell id="A7LO37rXqU6r63j_RT8w-19" value="Container Runtime" style="aspect=fixed;html=1;points=[];align=center;image;fontSize=14;image=img/lib/mscae/Databricks.svg;shadow=1;labelBackgroundColor=none;sketch=0;fillColor=none;fontFamily=Verdana;fontColor=#182633;" parent="-sU8y2Q3AdZbQh8XbGMl-1" vertex="1">
                    <mxGeometry x="-111.25999999999999" y="1515" width="41.67" height="40" as="geometry"/>
                </mxCell>
                <mxCell id="A7LO37rXqU6r63j_RT8w-45" style="edgeStyle=orthogonalEdgeStyle;rounded=0;jumpStyle=arc;orthogonalLoop=1;jettySize=auto;html=1;entryX=1;entryY=0.25;entryDx=0;entryDy=0;fontSize=16;startArrow=classic;startFill=1;strokeColor=#FFCC3E;strokeWidth=2;fontColor=#182633;" parent="-sU8y2Q3AdZbQh8XbGMl-1" source="A7LO37rXqU6r63j_RT8w-20" target="7xWn3VJRYGwJ2Aq6T1ND-48" edge="1">
                    <mxGeometry relative="1" as="geometry"/>
                </mxCell>
                <mxCell id="A7LO37rXqU6r63j_RT8w-47" style="edgeStyle=orthogonalEdgeStyle;rounded=0;jumpStyle=arc;orthogonalLoop=1;jettySize=auto;html=1;exitX=0.5;exitY=1;exitDx=0;exitDy=0;entryX=0.5;entryY=0;entryDx=0;entryDy=0;fontSize=16;startArrow=classic;startFill=1;strokeColor=#FFCC3E;strokeWidth=2;fontColor=#182633;" parent="-sU8y2Q3AdZbQh8XbGMl-1" source="A7LO37rXqU6r63j_RT8w-20" target="A7LO37rXqU6r63j_RT8w-23" edge="1">
                    <mxGeometry relative="1" as="geometry"/>
                </mxCell>
                <mxCell id="A7LO37rXqU6r63j_RT8w-20" value="Databricks Analytics Hosts Subnet" style="whiteSpace=wrap;html=1;labelPosition=center;verticalLabelPosition=middle;align=center;verticalAlign=top;sketch=0;fillStyle=zigzag;fontSize=16;fontFamily=Verdana;opacity=50;fillColor=none;strokeColor=#4EC4F5;strokeWidth=2;fontColor=#182633;" parent="-sU8y2Q3AdZbQh8XbGMl-1" vertex="1">
                    <mxGeometry x="660" y="1280" width="440" height="130" as="geometry"/>
                </mxCell>
                <mxCell id="A7LO37rXqU6r63j_RT8w-21" value="NSG" style="aspect=fixed;html=1;points=[];align=center;image;fontSize=14;image=img/lib/azure2/networking/Network_Security_Groups.svg;rounded=0;labelBackgroundColor=none;sketch=0;fontFamily=Verdana;fontColor=#182633;" parent="-sU8y2Q3AdZbQh8XbGMl-1" vertex="1">
                    <mxGeometry x="680" y="1260" width="35.41" height="43" as="geometry"/>
                </mxCell>
                <mxCell id="A7LO37rXqU6r63j_RT8w-22" value="Worker" style="aspect=fixed;html=1;points=[];align=center;image;fontSize=14;image=img/lib/mscae/Databricks.svg;shadow=1;labelBackgroundColor=none;sketch=0;fillColor=none;fontFamily=Verdana;fontColor=#182633;" parent="-sU8y2Q3AdZbQh8XbGMl-1" vertex="1">
                    <mxGeometry x="802.28" y="1325" width="41.67" height="40" as="geometry"/>
                </mxCell>
                <mxCell id="A7LO37rXqU6r63j_RT8w-49" style="edgeStyle=orthogonalEdgeStyle;rounded=0;jumpStyle=arc;orthogonalLoop=1;jettySize=auto;html=1;entryX=0.851;entryY=0.027;entryDx=0;entryDy=0;entryPerimeter=0;fontSize=16;startArrow=classic;startFill=1;strokeWidth=2;strokeColor=#55D397;fontColor=#182633;" parent="-sU8y2Q3AdZbQh8XbGMl-1" source="A7LO37rXqU6r63j_RT8w-23" target="7xWn3VJRYGwJ2Aq6T1ND-25" edge="1">
                    <mxGeometry relative="1" as="geometry"/>
                </mxCell>
                <mxCell id="A7LO37rXqU6r63j_RT8w-23" value="Databricks Analytics Containers Subnet" style="whiteSpace=wrap;html=1;labelPosition=center;verticalLabelPosition=middle;align=center;verticalAlign=top;sketch=0;fillStyle=zigzag;fontSize=16;fontFamily=Verdana;opacity=50;strokeWidth=2;strokeColor=#4EC4F5;fillColor=none;fontColor=#182633;" parent="-sU8y2Q3AdZbQh8XbGMl-1" vertex="1">
                    <mxGeometry x="660" y="1470" width="440" height="130" as="geometry"/>
                </mxCell>
                <mxCell id="A7LO37rXqU6r63j_RT8w-24" value="Container Runtime" style="aspect=fixed;html=1;points=[];align=center;image;fontSize=14;image=img/lib/mscae/Databricks.svg;shadow=1;labelBackgroundColor=none;sketch=0;fillColor=none;fontFamily=Verdana;fontColor=#182633;" parent="-sU8y2Q3AdZbQh8XbGMl-1" vertex="1">
                    <mxGeometry x="789.5799999999999" y="1515" width="41.67" height="40" as="geometry"/>
                </mxCell>
                <mxCell id="A7LO37rXqU6r63j_RT8w-25" value="Container Runtime" style="aspect=fixed;html=1;points=[];align=center;image;fontSize=14;image=img/lib/mscae/Databricks.svg;shadow=1;labelBackgroundColor=none;sketch=0;fillColor=none;fontFamily=Verdana;fontColor=#182633;" parent="-sU8y2Q3AdZbQh8XbGMl-1" vertex="1">
                    <mxGeometry x="928.74" y="1515" width="41.67" height="40" as="geometry"/>
                </mxCell>
                <mxCell id="A7LO37rXqU6r63j_RT8w-26" value="Worker" style="aspect=fixed;html=1;points=[];align=center;image;fontSize=14;image=img/lib/mscae/Databricks.svg;shadow=1;labelBackgroundColor=none;sketch=0;fillColor=none;fontFamily=Verdana;fontColor=#182633;" parent="-sU8y2Q3AdZbQh8XbGMl-1" vertex="1">
                    <mxGeometry x="916.06" y="1325" width="41.67" height="40" as="geometry"/>
                </mxCell>
                <mxCell id="A7LO37rXqU6r63j_RT8w-27" value="Worker" style="aspect=fixed;html=1;points=[];align=center;image;fontSize=14;image=img/lib/mscae/Databricks.svg;shadow=1;labelBackgroundColor=none;sketch=0;fillColor=none;fontFamily=Verdana;fontColor=#182633;" parent="-sU8y2Q3AdZbQh8XbGMl-1" vertex="1">
                    <mxGeometry x="-237.72000000000003" y="1325" width="41.67" height="40" as="geometry"/>
                </mxCell>
                <mxCell id="A7LO37rXqU6r63j_RT8w-28" value="Worker" style="aspect=fixed;html=1;points=[];align=center;image;fontSize=14;image=img/lib/mscae/Databricks.svg;shadow=1;labelBackgroundColor=none;sketch=0;fillColor=none;fontFamily=Verdana;fontColor=#182633;" parent="-sU8y2Q3AdZbQh8XbGMl-1" vertex="1">
                    <mxGeometry x="-123.94000000000001" y="1325" width="41.67" height="40" as="geometry"/>
                </mxCell>
                <mxCell id="A7LO37rXqU6r63j_RT8w-29" value="NSG" style="aspect=fixed;html=1;points=[];align=center;image;fontSize=14;image=img/lib/azure2/networking/Network_Security_Groups.svg;rounded=0;labelBackgroundColor=none;sketch=0;fontFamily=Verdana;fontColor=#182633;" parent="-sU8y2Q3AdZbQh8XbGMl-1" vertex="1">
                    <mxGeometry x="-365.5" y="1450" width="35.41" height="43" as="geometry"/>
                </mxCell>
                <mxCell id="A7LO37rXqU6r63j_RT8w-30" value="NSG" style="aspect=fixed;html=1;points=[];align=center;image;fontSize=14;image=img/lib/azure2/networking/Network_Security_Groups.svg;rounded=0;labelBackgroundColor=none;sketch=0;fontFamily=Verdana;fontColor=#182633;" parent="-sU8y2Q3AdZbQh8XbGMl-1" vertex="1">
                    <mxGeometry x="674.5" y="1450" width="35.41" height="43" as="geometry"/>
                </mxCell>
                <mxCell id="A7LO37rXqU6r63j_RT8w-37" value="Legend" style="whiteSpace=wrap;html=1;labelPosition=center;verticalLabelPosition=middle;align=center;verticalAlign=top;sketch=0;fillStyle=zigzag;fontSize=16;fontFamily=Verdana;fillColor=none;strokeWidth=2;dashed=1;dashPattern=1 1;strokeColor=#182633;fontColor=#182633;" parent="-sU8y2Q3AdZbQh8XbGMl-1" vertex="1">
                    <mxGeometry x="-827" y="2140" width="497" height="220" as="geometry"/>
                </mxCell>
                <mxCell id="A7LO37rXqU6r63j_RT8w-52" value="Azure Data Lake Gen 2&lt;br style=&quot;font-size: 14px;&quot;&gt;Private Endpoint" style="aspect=fixed;html=1;points=[];align=center;image;fontSize=14;image=img/lib/mscae/Data_Lake.svg;rounded=0;labelBackgroundColor=none;sketch=0;fillColor=none;fontFamily=Verdana;strokeWidth=2;perimeterSpacing=0;imageBorder=#4EC4F5;fontColor=#182633;" parent="-sU8y2Q3AdZbQh8XbGMl-1" vertex="1">
                    <mxGeometry x="182.74999999999997" y="1710.5" width="30.4" height="40" as="geometry"/>
                </mxCell>
                <mxCell id="A7LO37rXqU6r63j_RT8w-53" value="Azure Key Vault&lt;br style=&quot;font-size: 14px;&quot;&gt;Private Endpoint" style="aspect=fixed;html=1;points=[];align=center;image;fontSize=14;image=img/lib/mscae/Key_Vaults.svg;sketch=0;labelBackgroundColor=none;fontFamily=Verdana;imageBorder=#4EC4F5;strokeWidth=2;fontColor=#182633;" parent="-sU8y2Q3AdZbQh8XbGMl-1" vertex="1">
                    <mxGeometry x="503.8499999999999" y="1705.5" width="43.2" height="45" as="geometry"/>
                </mxCell>
                <mxCell id="A7LO37rXqU6r63j_RT8w-55" value="" style="fillColor=none;dashed=1;verticalAlign=top;fontStyle=0;rounded=0;sketch=0;fontFamily=Verdana;strokeColor=#4EC4F5;strokeWidth=2;dashPattern=1 1;fontColor=#182633;" parent="-sU8y2Q3AdZbQh8XbGMl-1" vertex="1">
                    <mxGeometry x="1330" y="1180" width="230" height="680" as="geometry"/>
                </mxCell>
                <mxCell id="A7LO37rXqU6r63j_RT8w-54" value="Private DNS" style="aspect=fixed;html=1;points=[];align=center;image;fontSize=14;image=img/lib/azure2/networking/DNS_Zones.svg;labelBackgroundColor=none;sketch=0;strokeColor=#4EC4F5;strokeWidth=2;fillColor=#355470;fontColor=#182633;" parent="-sU8y2Q3AdZbQh8XbGMl-1" vertex="1">
                    <mxGeometry x="1350" y="1150" width="64" height="64" as="geometry"/>
                </mxCell>
                <mxCell id="A7LO37rXqU6r63j_RT8w-66" value="Private Link &lt;br&gt;DNS Zones" style="whiteSpace=wrap;html=1;labelPosition=center;verticalLabelPosition=middle;align=center;verticalAlign=top;sketch=0;fillStyle=zigzag;fontSize=16;fontFamily=Verdana;opacity=50;strokeWidth=2;strokeColor=#4EC4F5;fillColor=none;fontColor=#182633;" parent="-sU8y2Q3AdZbQh8XbGMl-1" vertex="1">
                    <mxGeometry x="1350" y="1678" width="190" height="70" as="geometry"/>
                </mxCell>
                <mxCell id="A7LO37rXqU6r63j_RT8w-71" value="" style="edgeStyle=orthogonalEdgeStyle;rounded=0;orthogonalLoop=1;jettySize=auto;html=1;fontSize=14;startArrow=classic;startFill=1;strokeWidth=2;fontFamily=Verdana;fillColor=#f8cecc;endArrow=classic;endFill=1;strokeColor=#FC5F57;labelBackgroundColor=none;fontColor=#182633;" parent="-sU8y2Q3AdZbQh8XbGMl-1" edge="1">
                    <mxGeometry x="-1" y="90" relative="1" as="geometry">
                        <Array as="points">
                            <mxPoint x="-610" y="2220"/>
                            <mxPoint x="-610" y="2220"/>
                        </Array>
                        <mxPoint x="-600" y="2220" as="sourcePoint"/>
                        <mxPoint x="-800" y="2220" as="targetPoint"/>
                        <mxPoint x="90" y="-90" as="offset"/>
                    </mxGeometry>
                </mxCell>
                <mxCell id="A7LO37rXqU6r63j_RT8w-72" value="Outbound Internet Traffic" style="text;html=1;resizable=0;autosize=1;align=left;verticalAlign=middle;points=[];fillColor=none;strokeColor=none;rounded=0;dashed=1;dashPattern=1 1;labelBackgroundColor=none;sketch=0;fontSize=14;fontColor=#182633;" parent="-sU8y2Q3AdZbQh8XbGMl-1" vertex="1">
                    <mxGeometry x="-778.5" y="2194.66" width="170" height="20" as="geometry"/>
                </mxCell>
                <mxCell id="A7LO37rXqU6r63j_RT8w-73" style="edgeStyle=orthogonalEdgeStyle;rounded=0;jumpStyle=arc;orthogonalLoop=1;jettySize=auto;html=1;fontSize=16;startArrow=classic;startFill=1;strokeColor=#FFCC3E;strokeWidth=2;fontColor=#182633;" parent="-sU8y2Q3AdZbQh8XbGMl-1" edge="1">
                    <mxGeometry relative="1" as="geometry">
                        <mxPoint x="-800" y="2260" as="sourcePoint"/>
                        <mxPoint x="-600" y="2260" as="targetPoint"/>
                        <Array as="points">
                            <mxPoint x="-799" y="2260"/>
                            <mxPoint x="-799" y="2260"/>
                        </Array>
                    </mxGeometry>
                </mxCell>
                <mxCell id="A7LO37rXqU6r63j_RT8w-74" value="Databricks Control Traffic (TLS)" style="text;html=1;resizable=0;autosize=1;align=left;verticalAlign=middle;points=[];fillColor=none;strokeColor=none;rounded=0;dashed=1;dashPattern=1 1;labelBackgroundColor=none;sketch=0;fontSize=14;fontColor=#182633;" parent="-sU8y2Q3AdZbQh8XbGMl-1" vertex="1">
                    <mxGeometry x="-778.5" y="2234.66" width="210" height="20" as="geometry"/>
                </mxCell>
                <mxCell id="A7LO37rXqU6r63j_RT8w-76" style="edgeStyle=orthogonalEdgeStyle;rounded=0;jumpStyle=gap;orthogonalLoop=1;jettySize=auto;html=1;exitX=1;exitY=0.5;exitDx=0;exitDy=0;entryX=0;entryY=0.5;entryDx=0;entryDy=0;fontSize=16;startArrow=classic;startFill=1;strokeColor=#55D397;strokeWidth=2;fontColor=#182633;" parent="-sU8y2Q3AdZbQh8XbGMl-1" edge="1">
                    <mxGeometry relative="1" as="geometry">
                        <mxPoint x="-800" y="2300" as="sourcePoint"/>
                        <mxPoint x="-600" y="2300" as="targetPoint"/>
                    </mxGeometry>
                </mxCell>
                <mxCell id="A7LO37rXqU6r63j_RT8w-77" value="Private Link Traffic" style="text;html=1;resizable=0;autosize=1;align=left;verticalAlign=middle;points=[];fillColor=none;strokeColor=none;rounded=0;dashed=1;dashPattern=1 1;labelBackgroundColor=none;sketch=0;fontSize=14;fontColor=#182633;" parent="-sU8y2Q3AdZbQh8XbGMl-1" vertex="1">
                    <mxGeometry x="-778.5" y="2276" width="130" height="20" as="geometry"/>
                </mxCell>
                <mxCell id="A7LO37rXqU6r63j_RT8w-78" style="edgeStyle=orthogonalEdgeStyle;rounded=0;jumpStyle=gap;orthogonalLoop=1;jettySize=auto;html=1;exitX=1;exitY=0.5;exitDx=0;exitDy=0;entryX=0;entryY=0.5;entryDx=0;entryDy=0;fontSize=16;startArrow=classic;startFill=1;strokeColor=#55D397;strokeWidth=2;dashed=1;fontColor=#182633;" parent="-sU8y2Q3AdZbQh8XbGMl-1" edge="1">
                    <mxGeometry relative="1" as="geometry">
                        <mxPoint x="-800" y="2340" as="sourcePoint"/>
                        <mxPoint x="-600" y="2340" as="targetPoint"/>
                    </mxGeometry>
                </mxCell>
                <mxCell id="A7LO37rXqU6r63j_RT8w-79" value="Private DNS Queries" style="text;html=1;resizable=0;autosize=1;align=left;verticalAlign=middle;points=[];fillColor=none;strokeColor=none;rounded=0;dashed=1;dashPattern=1 1;labelBackgroundColor=none;sketch=0;fontSize=14;fontColor=#182633;" parent="-sU8y2Q3AdZbQh8XbGMl-1" vertex="1">
                    <mxGeometry x="-778.5" y="2318" width="150" height="20" as="geometry"/>
                </mxCell>
                <mxCell id="A7LO37rXqU6r63j_RT8w-80" style="edgeStyle=orthogonalEdgeStyle;rounded=0;jumpStyle=arc;orthogonalLoop=1;jettySize=auto;html=1;fontSize=16;startArrow=classic;startFill=1;strokeWidth=2;strokeColor=#216FF8;dashed=1;fontColor=#182633;" parent="-sU8y2Q3AdZbQh8XbGMl-1" edge="1">
                    <mxGeometry relative="1" as="geometry">
                        <mxPoint x="-560" y="2260" as="sourcePoint"/>
                        <mxPoint x="-360" y="2260" as="targetPoint"/>
                        <Array as="points">
                            <mxPoint x="-559" y="2260"/>
                            <mxPoint x="-559" y="2260"/>
                        </Array>
                    </mxGeometry>
                </mxCell>
                <mxCell id="A7LO37rXqU6r63j_RT8w-81" value="User Authentication (HTTPS)" style="text;html=1;resizable=0;autosize=1;align=left;verticalAlign=middle;points=[];fillColor=none;strokeColor=none;rounded=0;dashed=1;dashPattern=1 1;labelBackgroundColor=none;sketch=0;fontSize=14;fontColor=#182633;" parent="-sU8y2Q3AdZbQh8XbGMl-1" vertex="1">
                    <mxGeometry x="-546.5" y="2234.66" width="200" height="20" as="geometry"/>
                </mxCell>
                <mxCell id="A7LO37rXqU6r63j_RT8w-82" value="" style="aspect=fixed;html=1;points=[];align=center;image;fontSize=14;image=img/lib/azure2/networking/NAT.svg;rounded=0;labelBackgroundColor=none;sketch=0;labelPosition=center;verticalLabelPosition=bottom;verticalAlign=top;fontFamily=Verdana;fontColor=#182633;" parent="-sU8y2Q3AdZbQh8XbGMl-1" vertex="1">
                    <mxGeometry x="-362.3" y="1350" width="40" height="40" as="geometry"/>
                </mxCell>
                <mxCell id="A7LO37rXqU6r63j_RT8w-84" value="" style="aspect=fixed;html=1;points=[];align=center;image;fontSize=14;image=img/lib/azure2/networking/NAT.svg;rounded=0;labelBackgroundColor=none;sketch=0;labelPosition=center;verticalLabelPosition=bottom;verticalAlign=top;fontFamily=Verdana;fontColor=#182633;" parent="-sU8y2Q3AdZbQh8XbGMl-1" vertex="1">
                    <mxGeometry x="-367.79" y="1540" width="40" height="40" as="geometry"/>
                </mxCell>
                <mxCell id="A7LO37rXqU6r63j_RT8w-85" value="" style="aspect=fixed;html=1;points=[];align=center;image;fontSize=14;image=img/lib/azure2/networking/NAT.svg;rounded=0;labelBackgroundColor=none;sketch=0;labelPosition=center;verticalLabelPosition=bottom;verticalAlign=top;fontFamily=Verdana;fontColor=#182633;" parent="-sU8y2Q3AdZbQh8XbGMl-1" vertex="1">
                    <mxGeometry x="677.7" y="1350" width="40" height="40" as="geometry"/>
                </mxCell>
                <mxCell id="A7LO37rXqU6r63j_RT8w-86" value="" style="aspect=fixed;html=1;points=[];align=center;image;fontSize=14;image=img/lib/azure2/networking/NAT.svg;rounded=0;labelBackgroundColor=none;sketch=0;labelPosition=center;verticalLabelPosition=bottom;verticalAlign=top;fontFamily=Verdana;fontColor=#182633;" parent="-sU8y2Q3AdZbQh8XbGMl-1" vertex="1">
                    <mxGeometry x="672.21" y="1540" width="40" height="40" as="geometry"/>
                </mxCell>
                <mxCell id="A7LO37rXqU6r63j_RT8w-90" value="Private Link &lt;br&gt;DNS Zones" style="whiteSpace=wrap;html=1;labelPosition=center;verticalLabelPosition=middle;align=center;verticalAlign=top;sketch=0;fillStyle=zigzag;fontSize=16;fontFamily=Verdana;opacity=50;strokeWidth=2;strokeColor=#4EC4F5;fillColor=none;fontColor=#182633;" parent="-sU8y2Q3AdZbQh8XbGMl-1" vertex="1">
                    <mxGeometry x="1350" y="1521" width="190" height="70" as="geometry"/>
                </mxCell>
                <mxCell id="A7LO37rXqU6r63j_RT8w-92" value="Private Link &lt;br&gt;DNS Zones" style="whiteSpace=wrap;html=1;labelPosition=center;verticalLabelPosition=middle;align=center;verticalAlign=top;sketch=0;fillStyle=zigzag;fontSize=16;fontFamily=Verdana;opacity=50;strokeWidth=2;strokeColor=#4EC4F5;fillColor=none;fontColor=#182633;" parent="-sU8y2Q3AdZbQh8XbGMl-1" vertex="1">
                    <mxGeometry x="1350" y="1364" width="190" height="70" as="geometry"/>
                </mxCell>
                <mxCell id="A7LO37rXqU6r63j_RT8w-93" value="" style="aspect=fixed;html=1;points=[];align=center;image;fontSize=12;image=img/lib/mscae/DNS_Private_Zones.svg;dashed=1;dashPattern=1 1;labelBackgroundColor=none;sketch=0;strokeColor=#355470;strokeWidth=2;fillColor=#355470;fontColor=#182633;" parent="-sU8y2Q3AdZbQh8XbGMl-1" vertex="1">
                    <mxGeometry x="1355" y="1663" width="38" height="38" as="geometry"/>
                </mxCell>
                <mxCell id="A7LO37rXqU6r63j_RT8w-91" value="" style="aspect=fixed;html=1;points=[];align=center;image;fontSize=12;image=img/lib/mscae/DNS_Private_Zones.svg;dashed=1;dashPattern=1 1;labelBackgroundColor=none;sketch=0;strokeColor=#355470;strokeWidth=2;fillColor=#355470;fontColor=#182633;" parent="-sU8y2Q3AdZbQh8XbGMl-1" vertex="1">
                    <mxGeometry x="1355" y="1348" width="38" height="38" as="geometry"/>
                </mxCell>
                <mxCell id="A7LO37rXqU6r63j_RT8w-89" value="" style="aspect=fixed;html=1;points=[];align=center;image;fontSize=12;image=img/lib/mscae/DNS_Private_Zones.svg;dashed=1;dashPattern=1 1;labelBackgroundColor=none;sketch=0;strokeColor=#355470;strokeWidth=2;fillColor=#355470;fontColor=#182633;" parent="-sU8y2Q3AdZbQh8XbGMl-1" vertex="1">
                    <mxGeometry x="1355" y="1506" width="38" height="38" as="geometry"/>
                </mxCell>
            </root>
        </mxGraphModel>
    </diagram>
</mxfile>